<mxfile host="Electron" modified="2023-07-12T06:34:59.396Z" agent="Mozilla/5.0 (Windows NT 10.0; Win64; x64) AppleWebKit/537.36 (KHTML, like Gecko) draw.io/21.5.0 Chrome/112.0.5615.204 Electron/24.5.1 Safari/537.36" etag="t2BYAV-0se7FhSmgwhu3" version="21.5.0" type="device">
  <diagram id="JKcTHNOaefxm8sa3Ge9K" name="페이지-9">
    <mxGraphModel dx="2587" dy="828" grid="1" gridSize="10" guides="1" tooltips="1" connect="1" arrows="1" fold="1" page="1" pageScale="1" pageWidth="1169" pageHeight="827" math="0" shadow="0">
      <root>
        <mxCell id="0" />
        <mxCell id="1" parent="0" />
        <mxCell id="uD4G801vqj4AxjOlBBEP-1" value="Network" style="rounded=0;whiteSpace=wrap;html=1;verticalAlign=top;fillColor=#FFF2CC;" vertex="1" parent="1">
          <mxGeometry x="90" y="330" width="160" height="180" as="geometry" />
        </mxCell>
        <mxCell id="uD4G801vqj4AxjOlBBEP-2" value="Device" style="rounded=0;whiteSpace=wrap;html=1;verticalAlign=top;fillColor=#FFF2CC;" vertex="1" parent="1">
          <mxGeometry x="-90" y="330" width="130" height="180" as="geometry" />
        </mxCell>
        <mxCell id="9LIeiS9CzDMabdsBXYsp-57" value="Device" style="rounded=0;whiteSpace=wrap;html=1;verticalAlign=top;fillColor=#FFF2CC;" vertex="1" parent="1">
          <mxGeometry x="-90" y="330" width="130" height="180" as="geometry" />
        </mxCell>
        <mxCell id="9LIeiS9CzDMabdsBXYsp-1" value="" style="rounded=1;whiteSpace=wrap;html=1;fillColor=#E6E6E6;strokeColor=#d79b00;" vertex="1" parent="1">
          <mxGeometry x="199.97" y="540" width="184" height="130" as="geometry" />
        </mxCell>
        <mxCell id="9LIeiS9CzDMabdsBXYsp-3" value="Session" style="rounded=0;whiteSpace=wrap;html=1;verticalAlign=top;fillColor=#FFF2CC;" vertex="1" parent="1">
          <mxGeometry x="290" y="40" width="93.97" height="470" as="geometry" />
        </mxCell>
        <mxCell id="9LIeiS9CzDMabdsBXYsp-4" value="Media" style="rounded=0;whiteSpace=wrap;html=1;verticalAlign=top;fillColor=#FFF2CC;" vertex="1" parent="1">
          <mxGeometry x="-90" y="140" width="340" height="150" as="geometry" />
        </mxCell>
        <mxCell id="9LIeiS9CzDMabdsBXYsp-5" value="UI" style="rounded=0;whiteSpace=wrap;html=1;verticalAlign=top;fillColor=#FFF2CC;" vertex="1" parent="1">
          <mxGeometry x="-90" y="40" width="340" height="60" as="geometry" />
        </mxCell>
        <mxCell id="9LIeiS9CzDMabdsBXYsp-11" value="&lt;h1&gt;&lt;font style=&quot;font-size: 20px;&quot;&gt;UI Layer&lt;/font&gt;&lt;/h1&gt;&lt;div&gt;Receives video/audio streams from Media Layer.&lt;br&gt;&lt;/div&gt;&lt;div&gt;Provides views to end users for video/audio conference.&lt;/div&gt;&lt;div&gt;&lt;span style=&quot;background-color: initial;&quot;&gt;&amp;nbsp;- view of making video/voice call&lt;/span&gt;&lt;br&gt;&lt;/div&gt;&lt;div&gt;&amp;nbsp;- view of receiving video/voice call&lt;/div&gt;&lt;div&gt;&amp;nbsp;- view of reserving video/voice call&lt;br&gt;&lt;/div&gt;&lt;div&gt;&lt;br&gt;&lt;/div&gt;" style="text;html=1;strokeColor=none;fillColor=none;spacing=5;spacingTop=-20;whiteSpace=wrap;overflow=hidden;rounded=0;" vertex="1" parent="1">
          <mxGeometry x="530" y="30" width="360" height="130" as="geometry" />
        </mxCell>
        <mxCell id="9LIeiS9CzDMabdsBXYsp-12" value="&lt;h1&gt;&lt;font style=&quot;font-size: 20px;&quot;&gt;Network Layer&lt;/font&gt;&lt;/h1&gt;&lt;div&gt;Provides tcp/udp packets to all participants.&lt;/div&gt;&lt;div&gt;&lt;span style=&quot;background-color: initial;&quot;&gt;Provides video/audio streams to Media Layer.&lt;/span&gt;&lt;/div&gt;" style="text;html=1;strokeColor=none;fillColor=none;spacing=5;spacingTop=-20;whiteSpace=wrap;overflow=hidden;rounded=0;" vertex="1" parent="1">
          <mxGeometry x="530" y="310" width="360" height="90" as="geometry" />
        </mxCell>
        <mxCell id="9LIeiS9CzDMabdsBXYsp-13" value="&lt;h1&gt;&lt;font style=&quot;font-size: 20px;&quot;&gt;Media Layer&lt;/font&gt;&lt;/h1&gt;&lt;div&gt;Provides video/audio streams to UI Layer.&lt;/div&gt;&lt;div&gt;Decodes video/audio streams from Network Layer&lt;/div&gt;&lt;div&gt;Provides video/audio streams to Network Layer.&lt;br&gt;&lt;/div&gt;&lt;div&gt;Encodes video/audio streams from UI Layer&lt;/div&gt;&lt;div&gt;Provides acoustic echo cancellation(AEC)&lt;/div&gt;&lt;div&gt;Provides void activation detection(VAD)&lt;/div&gt;&lt;div&gt;&amp;nbsp;-&amp;nbsp;&amp;nbsp;&lt;/div&gt;" style="text;html=1;strokeColor=none;fillColor=none;spacing=5;spacingTop=-20;whiteSpace=wrap;overflow=hidden;rounded=0;" vertex="1" parent="1">
          <mxGeometry x="530" y="160" width="360" height="140" as="geometry" />
        </mxCell>
        <mxCell id="9LIeiS9CzDMabdsBXYsp-14" value="&lt;h1&gt;&lt;font style=&quot;font-size: 20px;&quot;&gt;Session Layer&lt;/font&gt;&lt;/h1&gt;Manages the session information (call instance id, ip address ...).&lt;div&gt;Provides the session information to all layers.&lt;/div&gt;&lt;div&gt;&lt;span style=&quot;background-color: initial;&quot;&gt;.&lt;/span&gt;&lt;br&gt;&lt;/div&gt;" style="text;html=1;strokeColor=none;fillColor=none;spacing=5;spacingTop=-20;whiteSpace=wrap;overflow=hidden;rounded=0;" vertex="1" parent="1">
          <mxGeometry x="530" y="420" width="490" height="90" as="geometry" />
        </mxCell>
        <mxCell id="9LIeiS9CzDMabdsBXYsp-15" value="" style="endArrow=classic;html=1;rounded=0;" edge="1" parent="1">
          <mxGeometry width="50" height="50" relative="1" as="geometry">
            <mxPoint x="273.96999999999997" y="574.5" as="sourcePoint" />
            <mxPoint x="233.96999999999997" y="574.5" as="targetPoint" />
          </mxGeometry>
        </mxCell>
        <mxCell id="9LIeiS9CzDMabdsBXYsp-16" value="Allowed to use" style="text;html=1;strokeColor=none;fillColor=none;align=center;verticalAlign=middle;whiteSpace=wrap;rounded=0;" vertex="1" parent="1">
          <mxGeometry x="273.96999999999997" y="560" width="100" height="30" as="geometry" />
        </mxCell>
        <mxCell id="9LIeiS9CzDMabdsBXYsp-17" value="" style="rounded=0;whiteSpace=wrap;html=1;fillColor=#FFF2CC;" vertex="1" parent="1">
          <mxGeometry x="233.96999999999997" y="600" width="40" height="20" as="geometry" />
        </mxCell>
        <mxCell id="9LIeiS9CzDMabdsBXYsp-18" value="Layer" style="text;html=1;strokeColor=none;fillColor=none;align=center;verticalAlign=middle;whiteSpace=wrap;rounded=0;" vertex="1" parent="1">
          <mxGeometry x="273.96999999999997" y="595" width="100" height="30" as="geometry" />
        </mxCell>
        <mxCell id="9LIeiS9CzDMabdsBXYsp-19" value="&lt;b&gt;Notification Key&lt;/b&gt;" style="text;html=1;strokeColor=none;fillColor=none;align=center;verticalAlign=middle;whiteSpace=wrap;rounded=0;" vertex="1" parent="1">
          <mxGeometry x="209.96999999999997" y="540" width="100" height="30" as="geometry" />
        </mxCell>
        <mxCell id="9LIeiS9CzDMabdsBXYsp-22" value="Network" style="html=1;whiteSpace=wrap;" vertex="1" parent="1">
          <mxGeometry x="1070" y="320" width="90" height="40" as="geometry" />
        </mxCell>
        <mxCell id="9LIeiS9CzDMabdsBXYsp-23" value="REST&amp;nbsp;" style="html=1;whiteSpace=wrap;" vertex="1" parent="1">
          <mxGeometry x="960" y="160" width="200" height="40" as="geometry" />
        </mxCell>
        <mxCell id="9LIeiS9CzDMabdsBXYsp-24" value="DAO" style="html=1;whiteSpace=wrap;" vertex="1" parent="1">
          <mxGeometry x="960" y="320" width="90" height="40" as="geometry" />
        </mxCell>
        <mxCell id="9LIeiS9CzDMabdsBXYsp-25" value="Service" style="html=1;whiteSpace=wrap;" vertex="1" parent="1">
          <mxGeometry x="960" y="240" width="200" height="40" as="geometry" />
        </mxCell>
        <mxCell id="9LIeiS9CzDMabdsBXYsp-26" value="Controller" style="html=1;whiteSpace=wrap;" vertex="1" parent="1">
          <mxGeometry x="960" y="80" width="200" height="40" as="geometry" />
        </mxCell>
        <mxCell id="9LIeiS9CzDMabdsBXYsp-27" value="" style="rounded=1;whiteSpace=wrap;html=1;fillColor=#ffe6cc;strokeColor=#d79b00;" vertex="1" parent="1">
          <mxGeometry x="1260" y="270" width="184" height="90" as="geometry" />
        </mxCell>
        <mxCell id="9LIeiS9CzDMabdsBXYsp-28" value="" style="endArrow=classic;html=1;rounded=0;" edge="1" parent="1">
          <mxGeometry width="50" height="50" relative="1" as="geometry">
            <mxPoint x="1334" y="304.5" as="sourcePoint" />
            <mxPoint x="1294" y="304.5" as="targetPoint" />
          </mxGeometry>
        </mxCell>
        <mxCell id="9LIeiS9CzDMabdsBXYsp-29" value="Allowed to use" style="text;html=1;strokeColor=none;fillColor=none;align=center;verticalAlign=middle;whiteSpace=wrap;rounded=0;" vertex="1" parent="1">
          <mxGeometry x="1334" y="290" width="100" height="30" as="geometry" />
        </mxCell>
        <mxCell id="9LIeiS9CzDMabdsBXYsp-30" value="" style="rounded=0;whiteSpace=wrap;html=1;" vertex="1" parent="1">
          <mxGeometry x="1294" y="330" width="40" height="20" as="geometry" />
        </mxCell>
        <mxCell id="9LIeiS9CzDMabdsBXYsp-31" value="Layer" style="text;html=1;strokeColor=none;fillColor=none;align=center;verticalAlign=middle;whiteSpace=wrap;rounded=0;" vertex="1" parent="1">
          <mxGeometry x="1334" y="325" width="100" height="30" as="geometry" />
        </mxCell>
        <mxCell id="9LIeiS9CzDMabdsBXYsp-32" value="&lt;b&gt;Notification Key&lt;/b&gt;" style="text;html=1;strokeColor=none;fillColor=none;align=center;verticalAlign=middle;whiteSpace=wrap;rounded=0;" vertex="1" parent="1">
          <mxGeometry x="1270" y="270" width="100" height="30" as="geometry" />
        </mxCell>
        <mxCell id="9LIeiS9CzDMabdsBXYsp-33" value="" style="endArrow=classic;html=1;rounded=0;entryX=0.25;entryY=0;entryDx=0;entryDy=0;exitX=0.25;exitY=1;exitDx=0;exitDy=0;" edge="1" parent="1">
          <mxGeometry width="50" height="50" relative="1" as="geometry">
            <mxPoint x="1058.5" y="121" as="sourcePoint" />
            <mxPoint x="1058.5" y="161" as="targetPoint" />
          </mxGeometry>
        </mxCell>
        <mxCell id="9LIeiS9CzDMabdsBXYsp-34" value="" style="endArrow=classic;html=1;rounded=0;entryX=0.25;entryY=0;entryDx=0;entryDy=0;exitX=0.25;exitY=1;exitDx=0;exitDy=0;" edge="1" parent="1">
          <mxGeometry width="50" height="50" relative="1" as="geometry">
            <mxPoint x="1060.5" y="200" as="sourcePoint" />
            <mxPoint x="1060.5" y="240" as="targetPoint" />
          </mxGeometry>
        </mxCell>
        <mxCell id="9LIeiS9CzDMabdsBXYsp-35" value="" style="endArrow=classic;html=1;rounded=0;entryX=0.25;entryY=0;entryDx=0;entryDy=0;exitX=0.25;exitY=1;exitDx=0;exitDy=0;" edge="1" parent="1">
          <mxGeometry width="50" height="50" relative="1" as="geometry">
            <mxPoint x="1002.5" y="280" as="sourcePoint" />
            <mxPoint x="1002.5" y="320" as="targetPoint" />
          </mxGeometry>
        </mxCell>
        <mxCell id="9LIeiS9CzDMabdsBXYsp-36" value="" style="endArrow=classic;html=1;rounded=0;entryX=0.25;entryY=0;entryDx=0;entryDy=0;exitX=0.25;exitY=1;exitDx=0;exitDy=0;" edge="1" parent="1">
          <mxGeometry width="50" height="50" relative="1" as="geometry">
            <mxPoint x="1112.5" y="280" as="sourcePoint" />
            <mxPoint x="1112.5" y="320" as="targetPoint" />
          </mxGeometry>
        </mxCell>
        <mxCell id="9LIeiS9CzDMabdsBXYsp-37" value="&lt;h1&gt;&lt;font style=&quot;font-size: 20px;&quot;&gt;Device Layer&lt;/font&gt;&lt;/h1&gt;&lt;span id=&quot;docs-internal-guid-b2c25d24-7fff-db53-c3f6-2423115e5195&quot;&gt;&lt;/span&gt;Handles I/O of camera and microphone&lt;br&gt;&lt;div&gt;&lt;span style=&quot;background-color: initial;&quot;&gt;.&lt;/span&gt;&lt;br&gt;&lt;/div&gt;" style="text;html=1;strokeColor=none;fillColor=none;spacing=5;spacingTop=-20;whiteSpace=wrap;overflow=hidden;rounded=0;" vertex="1" parent="1">
          <mxGeometry x="530" y="530" width="490" height="90" as="geometry" />
        </mxCell>
        <mxCell id="9LIeiS9CzDMabdsBXYsp-38" value="" style="endArrow=classic;html=1;rounded=0;entryX=1;entryY=0.5;entryDx=0;entryDy=0;exitX=1;exitY=0.5;exitDx=0;exitDy=0;" edge="1" parent="1" source="9LIeiS9CzDMabdsBXYsp-26" target="9LIeiS9CzDMabdsBXYsp-22">
          <mxGeometry width="50" height="50" relative="1" as="geometry">
            <mxPoint x="1068.5" y="131" as="sourcePoint" />
            <mxPoint x="1068.5" y="171" as="targetPoint" />
            <Array as="points">
              <mxPoint x="1200" y="100" />
              <mxPoint x="1200" y="340" />
            </Array>
          </mxGeometry>
        </mxCell>
        <mxCell id="9LIeiS9CzDMabdsBXYsp-39" value="microphone" style="rounded=1;whiteSpace=wrap;html=1;" vertex="1" parent="1">
          <mxGeometry x="-73.5" y="363" width="90" height="30" as="geometry" />
        </mxCell>
        <mxCell id="9LIeiS9CzDMabdsBXYsp-43" value="Jitter Buffer Handler" style="rounded=1;whiteSpace=wrap;html=1;" vertex="1" parent="1">
          <mxGeometry x="48.5" y="240" width="100" height="30" as="geometry" />
        </mxCell>
        <mxCell id="9LIeiS9CzDMabdsBXYsp-44" value="CODEC" style="rounded=1;whiteSpace=wrap;html=1;" vertex="1" parent="1">
          <mxGeometry x="-72.5" y="240" width="110" height="30" as="geometry" />
        </mxCell>
        <mxCell id="9LIeiS9CzDMabdsBXYsp-47" value="Lib(AEC/VAD)" style="rounded=1;whiteSpace=wrap;html=1;" vertex="1" parent="1">
          <mxGeometry x="-71" y="180" width="106" height="30" as="geometry" />
        </mxCell>
        <mxCell id="9LIeiS9CzDMabdsBXYsp-52" value="Mixer" style="rounded=1;whiteSpace=wrap;html=1;" vertex="1" parent="1">
          <mxGeometry x="48.5" y="180" width="100" height="30" as="geometry" />
        </mxCell>
        <mxCell id="9LIeiS9CzDMabdsBXYsp-55" value="Multimedia Stream Handler" style="rounded=1;whiteSpace=wrap;html=1;" vertex="1" parent="1">
          <mxGeometry x="159" y="180" width="79" height="90" as="geometry" />
        </mxCell>
        <mxCell id="9LIeiS9CzDMabdsBXYsp-56" value="Network" style="rounded=0;whiteSpace=wrap;html=1;verticalAlign=top;fillColor=#FFF2CC;" vertex="1" parent="1">
          <mxGeometry x="90" y="330" width="160" height="180" as="geometry" />
        </mxCell>
        <mxCell id="9LIeiS9CzDMabdsBXYsp-61" value="camera" style="rounded=1;whiteSpace=wrap;html=1;" vertex="1" parent="1">
          <mxGeometry x="-73.5" y="410" width="90" height="30" as="geometry" />
        </mxCell>
        <mxCell id="uD3vxYXv8AtufA1qNKt_-1" value="Account&lt;br&gt;Handler" style="rounded=1;whiteSpace=wrap;html=1;" vertex="1" parent="1">
          <mxGeometry x="302.06" y="120" width="71.91" height="80" as="geometry" />
        </mxCell>
        <mxCell id="uD3vxYXv8AtufA1qNKt_-2" value="Session Controller" style="rounded=1;whiteSpace=wrap;html=1;" vertex="1" parent="1">
          <mxGeometry x="100" y="363" width="140" height="30" as="geometry" />
        </mxCell>
        <mxCell id="uD3vxYXv8AtufA1qNKt_-3" value="Stream Buffer Handler" style="rounded=1;whiteSpace=wrap;html=1;" vertex="1" parent="1">
          <mxGeometry x="100" y="400" width="140" height="30" as="geometry" />
        </mxCell>
        <mxCell id="uD3vxYXv8AtufA1qNKt_-4" value="Packet Handler" style="rounded=1;whiteSpace=wrap;html=1;" vertex="1" parent="1">
          <mxGeometry x="100" y="438" width="140" height="30" as="geometry" />
        </mxCell>
        <mxCell id="uD3vxYXv8AtufA1qNKt_-5" value="Encrpytion" style="rounded=1;whiteSpace=wrap;html=1;" vertex="1" parent="1">
          <mxGeometry x="100" y="475" width="140" height="30" as="geometry" />
        </mxCell>
        <mxCell id="uD3vxYXv8AtufA1qNKt_-7" value="Conference Handler" style="rounded=1;whiteSpace=wrap;html=1;" vertex="1" parent="1">
          <mxGeometry x="302.06" y="303" width="71.91" height="90" as="geometry" />
        </mxCell>
        <mxCell id="uD3vxYXv8AtufA1qNKt_-8" value="speaker" style="rounded=1;whiteSpace=wrap;html=1;" vertex="1" parent="1">
          <mxGeometry x="-73.5" y="460" width="90" height="30" as="geometry" />
        </mxCell>
        <mxCell id="Kud_cJ_gswEyPKbrpL_g-1" value="Display" style="rounded=1;whiteSpace=wrap;html=1;" vertex="1" parent="1">
          <mxGeometry x="-68.5" y="60" width="128.5" height="30" as="geometry" />
        </mxCell>
        <mxCell id="Kud_cJ_gswEyPKbrpL_g-2" value="Event Handler" style="rounded=1;whiteSpace=wrap;html=1;" vertex="1" parent="1">
          <mxGeometry x="100" y="60" width="130" height="30" as="geometry" />
        </mxCell>
        <mxCell id="Kud_cJ_gswEyPKbrpL_g-3" value="" style="rounded=1;whiteSpace=wrap;html=1;" vertex="1" parent="1">
          <mxGeometry x="233.97" y="637" width="36.03" height="20" as="geometry" />
        </mxCell>
        <mxCell id="Kud_cJ_gswEyPKbrpL_g-4" value="Module" style="text;html=1;strokeColor=none;fillColor=none;align=center;verticalAlign=middle;whiteSpace=wrap;rounded=0;" vertex="1" parent="1">
          <mxGeometry x="273.96999999999997" y="635" width="100" height="30" as="geometry" />
        </mxCell>
        <mxCell id="Kud_cJ_gswEyPKbrpL_g-5" value="" style="endArrow=classic;html=1;rounded=0;exitX=0.5;exitY=1;exitDx=0;exitDy=0;" edge="1" parent="1" source="9LIeiS9CzDMabdsBXYsp-5" target="9LIeiS9CzDMabdsBXYsp-4">
          <mxGeometry width="50" height="50" relative="1" as="geometry">
            <mxPoint x="370" y="350" as="sourcePoint" />
            <mxPoint x="420" y="300" as="targetPoint" />
          </mxGeometry>
        </mxCell>
        <mxCell id="Kud_cJ_gswEyPKbrpL_g-6" value="" style="endArrow=classic;html=1;rounded=0;exitX=0.5;exitY=1;exitDx=0;exitDy=0;" edge="1" parent="1">
          <mxGeometry width="50" height="50" relative="1" as="geometry">
            <mxPoint x="169.57999999999998" y="290" as="sourcePoint" />
            <mxPoint x="169.57999999999998" y="330" as="targetPoint" />
          </mxGeometry>
        </mxCell>
        <mxCell id="Kud_cJ_gswEyPKbrpL_g-7" value="" style="endArrow=classic;html=1;rounded=0;exitX=0.5;exitY=1;exitDx=0;exitDy=0;" edge="1" parent="1">
          <mxGeometry width="50" height="50" relative="1" as="geometry">
            <mxPoint x="-25.42" y="290" as="sourcePoint" />
            <mxPoint x="-25.42" y="330" as="targetPoint" />
          </mxGeometry>
        </mxCell>
        <mxCell id="Kud_cJ_gswEyPKbrpL_g-8" value="" style="endArrow=classic;html=1;rounded=0;exitX=1;exitY=0.5;exitDx=0;exitDy=0;entryX=-0.02;entryY=0.066;entryDx=0;entryDy=0;entryPerimeter=0;" edge="1" parent="1" source="9LIeiS9CzDMabdsBXYsp-5" target="9LIeiS9CzDMabdsBXYsp-3">
          <mxGeometry width="50" height="50" relative="1" as="geometry">
            <mxPoint x="90" y="110" as="sourcePoint" />
            <mxPoint x="90" y="150" as="targetPoint" />
          </mxGeometry>
        </mxCell>
        <mxCell id="Kud_cJ_gswEyPKbrpL_g-9" value="" style="endArrow=classic;html=1;rounded=0;entryX=-0.02;entryY=0.066;entryDx=0;entryDy=0;entryPerimeter=0;" edge="1" parent="1">
          <mxGeometry width="50" height="50" relative="1" as="geometry">
            <mxPoint x="250" y="220" as="sourcePoint" />
            <mxPoint x="291" y="220" as="targetPoint" />
          </mxGeometry>
        </mxCell>
        <mxCell id="Kud_cJ_gswEyPKbrpL_g-11" value="" style="endArrow=classic;html=1;rounded=0;entryX=-0.02;entryY=0.066;entryDx=0;entryDy=0;entryPerimeter=0;" edge="1" parent="1">
          <mxGeometry width="50" height="50" relative="1" as="geometry">
            <mxPoint x="250" y="414.58000000000004" as="sourcePoint" />
            <mxPoint x="291" y="414.58000000000004" as="targetPoint" />
          </mxGeometry>
        </mxCell>
      </root>
    </mxGraphModel>
  </diagram>
</mxfile>
